<svg id="logoGraphic" xmlns="http://www.w3.org/2000/svg" viewBox="0 0 107.76 107.76"><title>logoGraphic</title><path id="logo" d="M53.88,0a53.88,53.88,0,1,0,53.88,53.88A53.88,53.88,0,0,0,53.88,0Zm-22,26.44H53.83c4.08,0,7.85.2,11.22,1.53a26.2,26.2,0,0,1,3.76,1.37l-6.55,6.1H48.53c-2.79,0-4.65,2.49-4.65,5.28V53l-12,12.76Zm25.4,38.81a1.69,1.69,0,1,1-1.69-1.69A1.69,1.69,0,0,1,57.28,65.25Zm22.17-1.13A26.38,26.38,0,0,1,73.8,73,25.89,25.89,0,0,1,65,78.85a30.75,30.75,0,0,1-11.21,2.59H31.88V77.12l12-11.59v2.23c0,.67,1,1.19,1.45,1.6a6.29,6.29,0,0,0,2.33.52s19.22,2.06,18.22-2.12v-26L74,34.67c1.85,2.13,4.37,4.6,5.47,7.37a29.94,29.94,0,0,1,2,11A30,30,0,0,1,79.45,64.12Z" fill="#fbb03b"/></svg>